<?xml version="1.0" encoding="utf-8"?>
<!-- Generator: Adobe Illustrator 25.3.1, SVG Export Plug-In . SVG Version: 6.00 Build 0)  -->
<svg version="1.1" id="Capa_1" xmlns="http://www.w3.org/2000/svg" xmlns:xlink="http://www.w3.org/1999/xlink" x="0px" y="0px"
	 viewBox="0 0 2400 120" style="enable-background:new 0 0 2400 120;" xml:space="preserve">
<style type="text/css">
	.st0{display:none;}
	.st1{display:inline;}
	.st2{fill:#00AC06;}
	.st3{fill:none;stroke:#FFFFFF;stroke-width:0.9136;stroke-miterlimit:10;}
	.st4{fill:none;stroke:#FFFFFF;stroke-width:0.9136;stroke-linecap:round;stroke-linejoin:round;stroke-miterlimit:10;}
	.st5{fill:#FFFFFF;}
	.st6{font-family:'MyriadPro-Regular';}
	.st7{font-size:33.3069px;}
	.st8{fill:#FBD600;}
</style>
<g id="Capa_2_1_" class="st0">
	<g class="st1">
		<g>
			<path class="st2" d="M2249.3,94.4h-287.8c-5.9,0-10.7-4.8-10.7-10.7V39c0-5.9,4.8-10.7,10.7-10.7h287.8c5.9,0,10.7,4.8,10.7,10.7
				v44.7C2260,89.6,2255.2,94.4,2249.3,94.4z"/>
			<g>
				<ellipse class="st3" cx="2209.6" cy="61.6" rx="20.1" ry="19"/>
				<polyline class="st4" points="2207,52.1 2215.5,62.1 2207.4,71.1 				"/>
			</g>
		</g>
		<text transform="matrix(1 0 0 1 1972.3757 73.9075)" class="st5 st6 st7">Solicítala AQUÍ </text>
	</g>
</g>
<g>
	<path class="st5" d="M212.5,59.6L212.5,59.6c0.2-0.2,0.2-0.2,0.2-0.2c0-0.4,0-0.5-0.2-0.8c0-0.2,0-0.2,0-0.2
		c-0.2-0.5-0.4-0.8-0.5-1.2l-17.4-25c-0.8-1.3-2.4-2-3.8-2h-30V13.9c0-2.6-2.2-4.7-4.7-4.9H62.9c-1.2,0-2.4,0.7-3.2,1.6
		c-0.8,1.1-1.3,2.2-1.2,3.5c0.2,2.5,2,4.4,4.6,4.6h88.4V90h-40.9l-0.2-0.7c-2.9-9.5-13-14.6-22.3-11.8c-5.5,1.7-10,6.1-11.8,11.8
		L75.9,90h-8.2V47.4c0.2-2.6-1.8-4.9-4.6-5c-2.6-0.1-4.9,1.8-5,4.6c0,0.2,0,0.4,0,0.5v47.3c0,2.6,2.2,4.7,4.7,4.7h13.1l0.2,0.5
		c3.1,9.2,13.2,14.4,22.4,11.3c5.4-1.7,9.6-6.1,11.3-11.3l0.2-0.5H164l0.2,0.5c1.6,4.6,4.6,8.3,8.8,10.4c4.2,2.2,9.1,2.5,13.7,1.1
		c5.4-1.7,9.7-6.1,11.5-11.5l0.2-0.5h9.7c1.3,0,2.5-0.5,3.4-1.3c0.8-0.8,1.3-2,1.3-3.4V59.5L212.5,59.6L212.5,59.6z M98.4,100.5
		c-1.6,1.6-3.5,2.5-5.9,2.5l0,0c-2.2,0-4.2-0.8-5.8-2.4c-1.6-1.6-2.5-3.5-2.5-5.9c0-4.6,3.7-8.3,8.3-8.3c2,0,4.1,0.7,5.5,2
		c1.8,1.6,2.9,3.8,2.9,6.2C100.8,96.9,100,99,98.4,100.5z M160.4,39.9h27.5l10.6,15.4h-38.3V39.9H160.4z M180.9,103.2
		C180.9,103.2,180.8,103.2,180.9,103.2c-2.4,0-4.4-0.8-5.9-2.4c-1.4-1.6-2.5-3.7-2.5-5.9s0.8-4.4,2.4-5.9c1.6-1.6,3.7-2.5,5.9-2.5
		c2,0,4.1,0.7,5.5,2c1.8,1.6,2.9,3.8,2.9,6.2C189.2,99.2,185.5,102.9,180.9,103.2z M198.2,90l-0.2-0.7c-1.3-4.6-4.6-8.3-8.8-10.4
		c-4.2-2.2-9.1-2.6-13.7-1.2c-5.5,1.7-10,6.1-11.8,11.8l-0.2,0.7h-3.4V64.9h42.5v25.2h-4.6V90H198.2z"/>
	<path class="st5" d="M2341.5,59.6L2341.5,59.6c0.2-0.2,0.2-0.2,0.2-0.2c0-0.4,0-0.5-0.2-0.8c0-0.2,0-0.2,0-0.2
		c-0.2-0.5-0.4-0.8-0.5-1.2l-17.4-25c-0.8-1.3-2.4-2-3.8-2h-30V13.9c0-2.6-2.2-4.7-4.7-4.9H2192c-1.2,0-2.4,0.7-3.2,1.6
		c-0.8,1.1-1.3,2.2-1.2,3.5c0.2,2.5,2,4.4,4.6,4.6h88.4V90h-40.9l-0.2-0.7c-2.9-9.5-13-14.6-22.3-11.8c-5.5,1.7-10,6.1-11.8,11.8
		l-0.2,0.7h-8.2V47.4c0.2-2.6-1.8-4.9-4.6-5c-2.6-0.1-4.9,1.8-5,4.6c0,0.2,0,0.4,0,0.5v47.3c0,2.6,2.2,4.7,4.7,4.7h13.1l0.2,0.5
		c3.1,9.2,13.2,14.4,22.4,11.3c5.4-1.7,9.6-6.1,11.3-11.3l0.2-0.5h53.9l0.2,0.5c1.6,4.6,4.6,8.3,8.8,10.4c4.2,2.2,9.1,2.5,13.7,1.1
		c5.4-1.7,9.7-6.1,11.5-11.5l0.2-0.5h9.7c1.3,0,2.5-0.5,3.4-1.3c0.8-0.8,1.3-2,1.3-3.4V59.5L2341.5,59.6L2341.5,59.6z M2227.5,100.5
		c-1.6,1.6-3.5,2.5-5.9,2.5l0,0c-2.2,0-4.2-0.8-5.8-2.4c-1.6-1.6-2.5-3.5-2.5-5.9c0-4.6,3.7-8.3,8.3-8.3c2,0,4.1,0.7,5.5,2
		c1.8,1.6,2.9,3.8,2.9,6.2C2229.9,96.9,2229.1,99,2227.5,100.5z M2289.4,39.9h27.5l10.6,15.4h-38.3V39.9H2289.4z M2310,103.2
		C2310,103.2,2309.9,103.2,2310,103.2c-2.4,0-4.4-0.8-5.9-2.4c-1.4-1.6-2.5-3.7-2.5-5.9s0.8-4.4,2.4-5.9c1.6-1.6,3.7-2.5,5.9-2.5
		c2,0,4.1,0.7,5.5,2c1.8,1.6,2.9,3.8,2.9,6.2C2318.3,99.2,2314.5,102.9,2310,103.2z M2327.3,90l-0.2-0.7c-1.3-4.6-4.6-8.3-8.8-10.4
		c-4.2-2.2-9.1-2.6-13.7-1.2c-5.5,1.7-10,6.1-11.8,11.8l-0.2,0.7h-3.4V64.9h42.5v25.2h-4.6V90H2327.3z"/>
	<path class="st5" d="M278,36.5v18.2h24.5v13.4H278v18.5h32v13.9h-50.1V22.6H310v13.9H278z"/>
	<path class="st5" d="M387.1,22.6v77.9h-9.4c-1.4,0-2.6-0.2-3.5-0.7s-1.9-1.2-2.8-2.4l-36.7-46.4c0.1,1.4,0.2,2.7,0.2,4
		c0,1.3,0.1,2.5,0.1,3.6v41.8H319V22.6h9.5c0.8,0,1.4,0,2,0.1c0.6,0.1,1.1,0.2,1.4,0.4c0.5,0.2,0.8,0.5,1.2,0.8
		c0.4,0.4,0.8,0.8,1.3,1.4l37.1,46.8c-0.2-1.5-0.4-2.9-0.4-4.4c-0.1-1.4-0.1-2.7-0.1-4V22.6L387.1,22.6z"/>
	<path class="st5" d="M469.9,22.6l-31.2,77.9h-16.4l-31.3-77.9h14.6c1.5,0,2.8,0.4,3.8,1.1c0.9,0.7,1.6,1.6,2.2,2.8l15.1,41.8
		c0.7,1.8,1.4,3.8,2.1,6c0.7,2.1,1.3,4.5,1.9,6.8c0.5-2.4,1.1-4.6,1.6-6.8c0.6-2.1,1.3-4.1,2-6l14.9-41.8c0.4-0.9,1.1-1.9,2.1-2.7
		c1.1-0.8,2.2-1.2,3.8-1.2L469.9,22.6z"/>
	<path class="st5" d="M507.8,0.7L490.5,16c-0.5,0.4-0.8,0.7-1.2,0.9c-0.4,0.2-0.8,0.4-1.2,0.5c-0.5,0.1-0.9,0.2-1.4,0.2
		s-1.1,0-1.6,0H473l10.1-14.5c0.5-0.6,0.8-1.1,1.3-1.4c0.4-0.4,0.8-0.6,1.3-0.7s1.1-0.2,1.6-0.2c0.6,0,1.3,0,2.1,0h18.4V0.7z
		 M492.2,100.5h-18.2V22.6h18.2V100.5z"/>
	<path class="st5" d="M581.6,60.5c0,5.6-0.9,10.8-2.9,15.8c-2,4.8-4.7,9.1-8.2,12.7c-3.5,3.5-7.8,6.4-12.7,8.5
		c-4.9,2-10.5,3.1-16.6,3.1c-6.1,0-11.5-1.1-16.6-3.1c-4.9-2-9.3-4.8-12.8-8.5c-3.5-3.5-6.2-7.8-8.2-12.7c-2-4.8-2.9-10.1-2.9-15.8
		s0.9-10.8,2.9-15.8c2-4.8,4.7-9.1,8.2-12.6c3.5-3.5,7.8-6.4,12.8-8.4c4.9-2,10.5-3.1,16.6-3.1c6.1,0,11.5,1.1,16.6,3.1
		c5.1,2,9.2,4.8,12.7,8.5c3.5,3.5,6.2,7.8,8.2,12.6S581.6,54.9,581.6,60.5z M563,60.5c0-3.9-0.5-7.3-1.5-10.4
		c-0.9-3.1-2.5-5.6-4.4-7.9c-1.9-2.2-4.1-3.8-6.8-4.9c-2.7-1.2-5.8-1.8-9.3-1.8s-6.6,0.6-9.3,1.8c-2.7,1.2-5.1,2.8-6.9,4.9
		c-1.9,2.1-3.3,4.7-4.4,7.9c-0.9,3.1-1.5,6.6-1.5,10.4c0,3.9,0.5,7.4,1.5,10.5c0.9,3.1,2.5,5.6,4.4,7.9c1.9,2.1,4.1,3.8,6.9,4.9
		c2.7,1.2,5.9,1.6,9.3,1.6c3.4,0,6.6-0.6,9.3-1.6c2.7-1.2,5.1-2.7,6.8-4.9c1.9-2.1,3.3-4.7,4.4-7.9C562.5,67.9,563,64.4,563,60.5z"
		/>
	<path class="st8" d="M629.3,62.1H655v30.6c-3.7,2.7-7.7,4.7-11.8,5.9s-8.5,1.9-13.1,1.9c-6,0-11.4-1-16.3-2.8s-9.1-4.5-12.6-7.8
		s-6.1-7.2-8.1-11.7s-2.8-9.4-2.8-14.8c0-5.4,0.9-10.4,2.7-14.9c1.9-4.5,4.4-8.4,7.7-11.7c3.3-3.3,7.3-5.8,12-7.7s10-2.7,15.9-2.7
		c3.1,0,5.8,0.2,8.5,0.8c2.6,0.5,5.1,1.2,7.3,2.1c2.2,0.9,4.3,1.9,6.1,3.1c1.9,1.2,3.5,2.5,4.9,3.8l-4.9,7.4c-0.8,1.2-1.7,1.9-3,2.2
		c-1.2,0.2-2.5,0-3.9-0.9c-1.3-0.8-2.6-1.5-3.7-2.1c-1.2-0.5-2.4-1.1-3.6-1.4c-1.2-0.3-2.5-0.7-3.8-0.8c-1.3-0.2-2.8-0.2-4.6-0.2
		c-3.2,0-6,0.5-8.5,1.6c-2.5,1.1-4.7,2.6-6.5,4.7c-1.7,2-3.2,4.5-4.2,7.3c-1,2.8-1.4,6-1.4,9.5c0,3.8,0.5,7.2,1.6,10.3
		c1.1,3.1,2.5,5.5,4.5,7.5c2,2.1,4.3,3.6,7,4.7c2.7,1.1,5.7,1.6,9,1.6c2,0,3.8-0.2,5.5-0.5c1.6-0.4,3.3-0.9,4.8-1.6V74.7h-7.1
		c-1.1,0-1.9-0.3-2.5-0.9c-0.5-0.5-0.9-1.3-0.9-2.2v-9.5H629.3z"/>
	<path class="st8" d="M723.6,100.5h-15.2c-2.8,0-4.8-1.1-6-3.2l-12-21c-0.5-0.9-1.2-1.5-1.9-2s-1.6-0.7-3-0.7h-4.3v26.8h-16.8V28.1
		h23.5c5.2,0,9.7,0.5,13.5,1.6c3.7,1.1,6.7,2.6,9.1,4.5c2.3,2,4,4.2,5.1,6.8s1.6,5.5,1.6,8.5c0,2.4-0.3,4.6-1,6.7s-1.5,4-2.7,5.8
		c-1.2,1.7-2.7,3.4-4.6,4.7c-1.9,1.4-3.9,2.5-6.2,3.4c1.1,0.5,2.1,1.3,3.1,2.1c1,0.9,1.9,1.9,2.6,3.1L723.6,100.5z M687.9,62.1
		c2.3,0,4.3-0.3,5.8-0.9c1.6-0.5,3-1.4,3.9-2.4c1-1,1.7-2.2,2.2-3.6c0.4-1.4,0.7-2.8,0.7-4.5c0-3.2-1-5.7-3.1-7.4
		c-2.1-1.7-5.2-2.7-9.6-2.7h-6.8V62h6.9V62.1z"/>
	<path class="st8" d="M790.5,100.5h-13c-1.4,0-2.6-0.3-3.5-1c-0.9-0.7-1.5-1.5-2.1-2.6l-4.3-12.6h-27.6l-4.3,12.6
		c-0.3,0.9-1,1.7-2,2.5c-1,0.8-2.1,1.1-3.5,1.1h-13.1l28-72.4h17.2L790.5,100.5z M763.8,72.9l-6.7-19.8c-0.5-1.3-1-2.7-1.6-4.5
		c-0.5-1.7-1.1-3.6-1.6-5.6c-0.5,2-1,3.9-1.6,5.6c-0.5,1.7-1.1,3.2-1.6,4.5l-6.7,19.7h19.9V72.9z"/>
	<path class="st8" d="M836,41.5h-20.3v59.1h-16.8V41.5h-20.3V28.1H836V41.5z"/>
	<path class="st8" d="M859.4,100.5h-17V28.1h17V100.5z"/>
	<path class="st8" d="M911.5,42c-0.5,0.8-1,1.4-1.5,1.7c-0.5,0.4-1.2,0.5-2.1,0.5c-0.8,0-1.5-0.2-2.4-0.8c-0.9-0.4-1.9-1-3-1.6
		c-1.1-0.5-2.4-1.1-3.8-1.6c-1.4-0.4-3.1-0.8-4.9-0.8c-3.2,0-5.5,0.7-7,2c-1.5,1.3-2.3,3.2-2.3,5.5c0,1.4,0.4,2.6,1.4,3.6
		c0.9,1,2.2,1.7,3.6,2.5c1.5,0.7,3.3,1.3,5.1,2c2,0.5,3.9,1.2,5.9,2c2,0.8,4,1.5,5.9,2.5c2,1,3.6,2.2,5.1,3.7
		c1.5,1.5,2.7,3.3,3.6,5.5c0.9,2.2,1.4,4.7,1.4,7.8c0,3.4-0.5,6.5-1.7,9.4c-1.2,3-2.8,5.5-5,7.7s-4.9,3.8-8.2,5.1
		c-3.3,1.2-6.9,1.9-11,1.9c-2.3,0-4.6-0.2-6.9-0.7c-2.3-0.4-4.6-1.1-6.8-2c-2.2-0.9-4.3-1.9-6.1-3.1c-2-1.2-3.6-2.4-5-3.8l4.9-7.9
		c0.4-0.5,0.9-1,1.5-1.4c0.7-0.3,1.3-0.5,2.1-0.5c1,0,2,0.3,3.1,1c1,0.7,2.2,1.3,3.4,2.1c1.3,0.8,2.7,1.4,4.4,2.1s3.6,1,5.9,1
		c3.1,0,5.5-0.7,7.1-2c1.6-1.3,2.5-3.5,2.5-6.3c0-1.6-0.4-3.1-1.4-4.2c-0.9-1.1-2.2-2-3.6-2.6c-1.5-0.7-3.2-1.3-5.1-1.9
		s-3.9-1.1-5.9-1.7c-2-0.7-4-1.4-5.9-2.4c-2-1-3.6-2.2-5.1-3.7c-1.5-1.5-2.7-3.5-3.6-5.8c-0.9-2.3-1.4-5.1-1.4-8.5
		c0-2.7,0.5-5.4,1.6-8c1.1-2.6,2.7-4.9,4.8-6.9c2.1-2,4.7-3.6,7.8-4.8c3.1-1.2,6.6-1.9,10.6-1.9c2.2,0,4.4,0.2,6.5,0.5
		c2.1,0.3,4.2,0.9,6,1.5c1.9,0.7,3.6,1.5,5.2,2.4c1.6,0.9,3.1,2,4.4,3.2L911.5,42z"/>
	<g>
		<path class="st5" d="M996.7,28.4v13.1h-30v17.1h23v12.6h-23v17.4h30v13.1h-47.1V28.4H996.7z"/>
		<path class="st5" d="M1016.8,28.5c0.5,0.1,1,0.2,1.4,0.4c0.4,0.2,0.8,0.4,1.2,0.8c0.4,0.3,0.8,0.8,1.3,1.4l34.8,43.9
			c-0.1-1.4-0.2-2.8-0.3-4.1c-0.1-1.3-0.1-2.6-0.1-3.7V28.4h15v73.2h-8.8c-1.3,0-2.4-0.2-3.3-0.6c-0.9-0.4-1.8-1.1-2.6-2.2
			l-34.5-43.6c0.1,1.3,0.2,2.5,0.3,3.7c0.1,1.2,0.1,2.4,0.1,3.4v39.2h-15V28.4h8.9C1015.7,28.4,1016.3,28.5,1016.8,28.5z"/>
		<path class="st8" d="M1131.1,72.1c0.6,1.4,1.2,2.8,1.8,4.2c0.6-1.5,1.2-2.9,1.8-4.3c0.6-1.4,1.3-2.7,2-4l18.8-37
			c0.3-0.6,0.7-1.1,1-1.5c0.4-0.4,0.7-0.6,1.2-0.8c0.4-0.2,0.9-0.3,1.5-0.3s1.2,0,1.9,0h13v73.1h-15V59.5c0-2,0.1-4.3,0.3-6.6
			L1140,90.5c-0.6,1.2-1.4,2.1-2.4,2.7c-1,0.6-2.2,0.9-3.5,0.9h-2.3c-1.3,0-2.5-0.3-3.5-0.9c-1-0.6-1.8-1.5-2.4-2.7l-19.5-37.7
			c0.1,1.2,0.2,2.3,0.3,3.5c0.1,1.2,0.1,2.2,0.1,3.2v42.1h-15V28.5h13c0.7,0,1.4,0,1.9,0s1,0.1,1.5,0.3c0.4,0.2,0.8,0.4,1.2,0.8
			c0.4,0.4,0.7,0.8,1,1.5l18.8,37.2C1129.9,69.4,1130.5,70.7,1131.1,72.1z"/>
		<path class="st8" d="M1203.8,101.6h-17.1V28.4h17.1V101.6z"/>
		<path class="st8" d="M1233.3,88h27.1v13.6h-44.1V28.4h17V88z"/>
		<path class="st8" d="M1313.1,28.4v13.1h-30v17.1h23v12.6h-23v17.4h30v13.1h-47.1V28.4H1313.1z"/>
		<path class="st8" d="M1363,43.3c-0.5,0.8-1,1.4-1.6,1.8s-1.3,0.6-2.1,0.6c-0.8,0-1.6-0.2-2.5-0.7c-0.9-0.5-1.9-1-3-1.6
			c-1.1-0.6-2.4-1.1-3.8-1.6c-1.4-0.5-3.1-0.7-4.9-0.7c-3.2,0-5.5,0.7-7.1,2c-1.6,1.4-2.3,3.2-2.3,5.5c0,1.5,0.5,2.7,1.4,3.7
			c0.9,1,2.2,1.8,3.7,2.5c1.5,0.7,3.3,1.3,5.2,1.9c2,0.6,4,1.2,6,2c2,0.7,4,1.6,6,2.5c2,1,3.7,2.2,5.2,3.7c1.5,1.5,2.8,3.3,3.7,5.5
			c0.9,2.2,1.4,4.8,1.4,7.8c0,3.4-0.6,6.5-1.8,9.5c-1.2,2.9-2.9,5.5-5.1,7.7c-2.2,2.2-5,3.9-8.2,5.2c-3.3,1.3-7,1.9-11.1,1.9
			c-2.3,0-4.6-0.2-7-0.7c-2.4-0.5-4.6-1.1-6.9-2s-4.3-1.9-6.2-3c-1.9-1.2-3.6-2.5-5.1-3.9l5-7.9c0.4-0.6,0.9-1.1,1.6-1.5
			c0.7-0.4,1.4-0.6,2.2-0.6c1,0,2,0.3,3,1c1,0.6,2.2,1.3,3.5,2.1c1.3,0.8,2.8,1.5,4.4,2.1c1.7,0.6,3.6,1,5.9,1c3.1,0,5.5-0.7,7.2-2
			c1.7-1.4,2.6-3.5,2.6-6.5c0-1.7-0.5-3.1-1.4-4.2c-0.9-1.1-2.2-2-3.7-2.7c-1.5-0.7-3.3-1.3-5.2-1.9c-1.9-0.5-3.9-1.1-6-1.8
			c-2-0.7-4-1.5-6-2.4c-1.9-1-3.7-2.2-5.2-3.8s-2.8-3.5-3.7-5.8c-0.9-2.3-1.4-5.2-1.4-8.6c0-2.7,0.6-5.4,1.7-8
			c1.1-2.6,2.7-4.9,4.9-7c2.1-2,4.8-3.7,7.9-4.9c3.1-1.2,6.7-1.8,10.7-1.8c2.2,0,4.4,0.2,6.6,0.5c2.1,0.4,4.1,0.9,6.1,1.6
			c1.9,0.7,3.7,1.5,5.3,2.5c1.7,1,3.1,2,4.4,3.2L1363,43.3z"/>
		<path class="st5" d="M1449.1,65c0,5.3-0.9,10.2-2.7,14.6c-1.8,4.5-4.4,8.3-7.7,11.6c-3.3,3.3-7.3,5.8-12,7.6
			c-4.7,1.8-9.9,2.7-15.5,2.7h-28.4V28.4h28.4c5.7,0,10.9,0.9,15.5,2.8c4.7,1.8,8.7,4.4,12,7.6c3.3,3.2,5.9,7.1,7.7,11.6
			C1448.2,54.9,1449.1,59.7,1449.1,65z M1431.7,65c0-3.6-0.5-6.9-1.4-9.8c-0.9-2.9-2.3-5.4-4-7.4c-1.8-2-3.9-3.6-6.5-4.7
			c-2.5-1.1-5.4-1.6-8.7-1.6h-11.4v47.1h11.4c3.2,0,6.1-0.5,8.7-1.6c2.5-1.1,4.7-2.6,6.5-4.7c1.8-2,3.1-4.5,4-7.4
			C1431.2,71.9,1431.7,68.6,1431.7,65z"/>
		<path class="st5" d="M1504.2,28.4v13.1h-30v17.1h23v12.6h-23v17.4h30v13.1h-47.1V28.4H1504.2z"/>
		<path class="st5" d="M1545.8,77.1v24.5h-17V28.4h25.8c5.2,0,9.6,0.6,13.3,1.8c3.7,1.2,6.7,2.9,9.1,5c2.4,2.1,4.2,4.7,5.3,7.6
			c1.1,2.9,1.7,6.1,1.7,9.4c0,3.6-0.6,7-1.8,10c-1.2,3-3,5.7-5.4,7.8c-2.4,2.2-5.5,3.9-9.2,5.1c-3.7,1.2-8.1,1.8-13.1,1.8H1545.8z
			 M1545.8,64.3h8.8c4.4,0,7.6-1.1,9.5-3.2c1.9-2.1,2.9-5.1,2.9-8.8c0-1.7-0.3-3.2-0.8-4.6c-0.5-1.4-1.3-2.6-2.3-3.5
			c-1-1-2.3-1.7-3.9-2.3c-1.6-0.5-3.4-0.8-5.5-0.8h-8.8V64.3z"/>
		<path class="st5" d="M1607.5,74.5v27.1h-17V28.4h23.8c5.3,0,9.8,0.5,13.5,1.6c3.7,1.1,6.8,2.6,9.1,4.5c2.4,1.9,4.1,4.2,5.1,6.9
			c1.1,2.6,1.6,5.5,1.6,8.6c0,2.4-0.3,4.6-1,6.7s-1.6,4.1-2.8,5.9c-1.3,1.8-2.8,3.4-4.6,4.8c-1.8,1.4-3.9,2.6-6.3,3.5
			c1.1,0.6,2.2,1.3,3.2,2.1c1,0.8,1.8,1.9,2.6,3.1l15.6,25.5H1635c-2.8,0-4.9-1.1-6.1-3.2l-12.2-21.2c-0.5-0.9-1.2-1.6-1.9-2
			c-0.7-0.4-1.7-0.6-3-0.6H1607.5z M1607.5,62.8h6.8c2.3,0,4.3-0.3,5.9-0.9c1.6-0.6,3-1.4,4-2.4c1-1,1.8-2.3,2.3-3.6
			c0.5-1.4,0.7-2.9,0.7-4.5c0-3.2-1-5.7-3.1-7.5c-2.1-1.8-5.3-2.7-9.7-2.7h-6.8V62.8z"/>
		<path class="st5" d="M1726.4,65c0,5.3-0.9,10.2-2.7,14.8c-1.8,4.6-4.4,8.5-7.7,11.9c-3.3,3.4-7.3,6-12,7.9
			c-4.7,1.9-9.9,2.9-15.5,2.9c-5.7,0-10.9-1-15.6-2.9c-4.7-1.9-8.7-4.5-12-7.9c-3.3-3.4-5.9-7.3-7.7-11.9c-1.8-4.6-2.7-9.5-2.7-14.8
			c0-5.3,0.9-10.2,2.7-14.8c1.8-4.6,4.4-8.5,7.7-11.9c3.3-3.3,7.3-6,12-7.9c4.7-1.9,9.9-2.9,15.6-2.9c5.7,0,10.9,1,15.5,2.9
			c4.7,1.9,8.7,4.6,12,7.9c3.3,3.3,5.9,7.3,7.7,11.9C1725.5,54.8,1726.4,59.7,1726.4,65z M1709,65c0-3.6-0.5-6.9-1.4-9.8
			c-0.9-2.9-2.3-5.3-4-7.4c-1.8-2-3.9-3.5-6.5-4.6c-2.5-1.1-5.4-1.6-8.7-1.6c-3.3,0-6.2,0.5-8.8,1.6c-2.6,1.1-4.7,2.6-6.5,4.6
			c-1.8,2-3.1,4.5-4,7.4c-0.9,2.9-1.4,6.2-1.4,9.8c0,3.7,0.5,6.9,1.4,9.8c0.9,2.9,2.3,5.3,4,7.4c1.8,2,3.9,3.5,6.5,4.6
			c2.6,1.1,5.5,1.6,8.8,1.6c3.2,0,6.1-0.5,8.7-1.6c2.5-1.1,4.7-2.6,6.5-4.6c1.8-2,3.1-4.5,4-7.4C1708.5,71.9,1709,68.6,1709,65z"/>
		<path class="st5" d="M1800.8,65c0,5.3-0.9,10.2-2.7,14.6c-1.8,4.5-4.4,8.3-7.7,11.6c-3.3,3.3-7.3,5.8-12,7.6
			c-4.7,1.8-9.9,2.7-15.5,2.7h-28.4V28.4h28.4c5.7,0,10.9,0.9,15.5,2.8c4.7,1.8,8.7,4.4,12,7.6c3.3,3.2,5.9,7.1,7.7,11.6
			C1799.9,54.9,1800.8,59.7,1800.8,65z M1783.4,65c0-3.6-0.5-6.9-1.4-9.8c-0.9-2.9-2.3-5.4-4-7.4c-1.8-2-3.9-3.6-6.5-4.7
			c-2.5-1.1-5.4-1.6-8.7-1.6h-11.4v47.1h11.4c3.2,0,6.1-0.5,8.7-1.6c2.5-1.1,4.7-2.6,6.5-4.7c1.8-2,3.1-4.5,4-7.4
			C1782.9,71.9,1783.4,68.6,1783.4,65z"/>
		<path class="st5" d="M1839,88.2c2.3,0,4.3-0.4,6.1-1.1c1.8-0.8,3.3-1.8,4.5-3.2c1.2-1.4,2.2-3.1,2.8-5.1c0.7-2,1-4.3,1-6.9V28.4
			h17v43.3c0,4.5-0.7,8.6-2.2,12.4c-1.5,3.8-3.5,7-6.3,9.7c-2.7,2.7-6,4.8-9.9,6.3c-3.9,1.5-8.3,2.3-13.1,2.3
			c-4.9,0-9.3-0.8-13.2-2.3c-3.9-1.5-7.2-3.6-9.9-6.3c-2.7-2.7-4.8-5.9-6.2-9.7c-1.4-3.7-2.2-7.9-2.2-12.4V28.4h17v43.3
			c0,2.6,0.3,4.9,1,6.9c0.7,2,1.6,3.8,2.8,5.2c1.2,1.4,2.8,2.5,4.5,3.3C1834.7,87.8,1836.8,88.2,1839,88.2z"/>
		<path class="st5" d="M1930.8,82.7c0.4,0,0.8,0.1,1.2,0.2c0.4,0.2,0.8,0.4,1.2,0.8l6.7,7.1c-2.9,3.9-6.6,6.8-11.1,8.7
			c-4.4,2-9.7,2.9-15.7,2.9c-5.6,0-10.5-0.9-14.9-2.8c-4.4-1.9-8.1-4.5-11.2-7.8c-3.1-3.3-5.4-7.3-7.1-11.9
			c-1.6-4.6-2.5-9.5-2.5-14.9c0-5.5,0.9-10.5,2.8-15c1.9-4.6,4.5-8.5,7.9-11.8c3.4-3.3,7.4-5.9,12.1-7.7c4.7-1.8,9.9-2.8,15.5-2.8
			c2.7,0,5.3,0.2,7.8,0.7c2.4,0.5,4.7,1.2,6.8,2c2.1,0.9,4.1,1.9,5.8,3.1c1.8,1.2,3.3,2.5,4.7,3.9l-5.7,7.7
			c-0.4,0.5-0.8,0.9-1.3,1.3c-0.5,0.4-1.2,0.6-2.1,0.6c-0.6,0-1.2-0.1-1.7-0.4c-0.5-0.3-1.1-0.6-1.7-1c-0.6-0.4-1.3-0.8-2-1.3
			c-0.7-0.5-1.6-0.9-2.6-1.3c-1-0.4-2.1-0.7-3.5-1c-1.3-0.3-2.9-0.4-4.6-0.4c-3.1,0-5.9,0.5-8.4,1.6c-2.5,1.1-4.7,2.6-6.6,4.7
			c-1.8,2-3.2,4.5-4.3,7.4c-1,2.9-1.5,6.1-1.5,9.7c0,3.8,0.5,7.1,1.5,10c1,2.9,2.4,5.4,4.2,7.4c1.8,2,3.8,3.5,6.2,4.5
			c2.3,1,4.9,1.6,7.5,1.6c1.5,0,2.9-0.1,4.2-0.2c1.3-0.2,2.5-0.4,3.5-0.8c1.1-0.4,2.1-0.8,3.1-1.4c1-0.6,2-1.3,3-2.2
			c0.4-0.3,0.8-0.6,1.3-0.8C1929.8,82.8,1930.3,82.7,1930.8,82.7z"/>
		<path class="st5" d="M2001.7,28.4v13.5h-20.6v59.7h-17V41.9h-20.6V28.4H2001.7z"/>
		<path class="st5" d="M2077.7,65c0,5.3-0.9,10.2-2.7,14.8c-1.8,4.6-4.4,8.5-7.7,11.9s-7.3,6-12,7.9c-4.7,1.9-9.9,2.9-15.5,2.9
			c-5.7,0-10.9-1-15.6-2.9c-4.7-1.9-8.7-4.5-12-7.9c-3.3-3.4-5.9-7.3-7.7-11.9c-1.8-4.6-2.7-9.5-2.7-14.8c0-5.3,0.9-10.2,2.7-14.8
			c1.8-4.6,4.4-8.5,7.7-11.9c3.3-3.3,7.3-6,12-7.9c4.7-1.9,9.9-2.9,15.6-2.9c5.7,0,10.9,1,15.5,2.9c4.7,1.9,8.7,4.6,12,7.9
			c3.3,3.3,5.9,7.3,7.7,11.9C2076.8,54.8,2077.7,59.7,2077.7,65z M2060.3,65c0-3.6-0.5-6.9-1.4-9.8c-0.9-2.9-2.3-5.3-4-7.4
			c-1.8-2-3.9-3.5-6.5-4.6c-2.5-1.1-5.4-1.6-8.7-1.6c-3.3,0-6.2,0.5-8.8,1.6c-2.6,1.1-4.7,2.6-6.5,4.6c-1.8,2-3.1,4.5-4,7.4
			c-0.9,2.9-1.4,6.2-1.4,9.8c0,3.7,0.5,6.9,1.4,9.8c0.9,2.9,2.3,5.3,4,7.4c1.8,2,3.9,3.5,6.5,4.6c2.6,1.1,5.5,1.6,8.8,1.6
			c3.2,0,6.1-0.5,8.7-1.6c2.5-1.1,4.7-2.6,6.5-4.6c1.8-2,3.1-4.5,4-7.4C2059.8,71.9,2060.3,68.6,2060.3,65z"/>
		<path class="st5" d="M2125.6,43.3c-0.5,0.8-1,1.4-1.6,1.8c-0.6,0.4-1.3,0.6-2.1,0.6c-0.8,0-1.6-0.2-2.5-0.7c-0.9-0.5-1.9-1-3-1.6
			c-1.1-0.6-2.4-1.1-3.8-1.6c-1.4-0.5-3.1-0.7-4.9-0.7c-3.2,0-5.6,0.7-7.1,2c-1.6,1.4-2.3,3.2-2.3,5.5c0,1.5,0.5,2.7,1.4,3.7
			c0.9,1,2.2,1.8,3.7,2.5c1.5,0.7,3.3,1.3,5.2,1.9c2,0.6,4,1.2,6,2c2,0.7,4,1.6,6,2.5c2,1,3.7,2.2,5.2,3.7c1.5,1.5,2.8,3.3,3.7,5.5
			c0.9,2.2,1.4,4.8,1.4,7.8c0,3.4-0.6,6.5-1.8,9.5c-1.2,2.9-2.9,5.5-5.1,7.7c-2.2,2.2-5,3.9-8.2,5.2c-3.3,1.3-7,1.9-11.1,1.9
			c-2.3,0-4.6-0.2-7-0.7c-2.4-0.5-4.6-1.1-6.9-2s-4.3-1.9-6.2-3c-1.9-1.2-3.6-2.5-5.1-3.9l5-7.9c0.4-0.6,0.9-1.1,1.6-1.5
			c0.7-0.4,1.4-0.6,2.2-0.6c1,0,2,0.3,3,1c1,0.6,2.2,1.3,3.5,2.1c1.3,0.8,2.8,1.5,4.4,2.1c1.7,0.6,3.6,1,5.9,1c3.1,0,5.5-0.7,7.2-2
			c1.7-1.4,2.6-3.5,2.6-6.5c0-1.7-0.5-3.1-1.4-4.2c-0.9-1.1-2.2-2-3.7-2.7c-1.5-0.7-3.3-1.3-5.2-1.9c-1.9-0.5-3.9-1.1-6-1.8
			c-2-0.7-4-1.5-6-2.4c-1.9-1-3.7-2.2-5.2-3.8s-2.8-3.5-3.7-5.8c-0.9-2.3-1.4-5.2-1.4-8.6c0-2.7,0.6-5.4,1.7-8
			c1.1-2.6,2.7-4.9,4.9-7c2.1-2,4.8-3.7,7.9-4.9c3.1-1.2,6.7-1.8,10.7-1.8c2.2,0,4.4,0.2,6.6,0.5c2.1,0.4,4.1,0.9,6.1,1.6
			c1.9,0.7,3.7,1.5,5.3,2.5c1.7,1,3.1,2,4.4,3.2L2125.6,43.3z"/>
	</g>
</g>
</svg>
