<?xml version="1.0" encoding="UTF-8"?>
<svg id="Capa_1" data-name="Capa 1" xmlns="http://www.w3.org/2000/svg" xmlns:xlink="http://www.w3.org/1999/xlink" viewBox="0 0 769 111">
  <defs>
    <style>
      .cls-1 {
        fill: #fff;
      }

      .cls-2 {
        clip-path: url(#clippath-1);
      }

      .cls-3 {
        fill: gold;
      }

      .cls-4 {
        stroke: #256fb7;
        stroke-miterlimit: 10;
        stroke-width: 23px;
      }

      .cls-4, .cls-5 {
        fill: none;
      }

      .cls-6 {
        clip-path: url(#clippath);
      }
    </style>
    <clipPath id="clippath">
      <rect class="cls-5" x="-16.5" y="145.42" width="785.3" height="131.56"/>
    </clipPath>
    <clipPath id="clippath-1">
      <rect class="cls-5" x="-5.61" y="152.36" width="774.41" height="149.81"/>
    </clipPath>
  </defs>
  <g class="cls-6">
    <g class="cls-2">
      <ellipse class="cls-4" cx="816.09" cy="125.32" rx="134.73" ry="102.53"/>
    </g>
  </g>
  <g>
    <g>
      <path class="cls-1" d="M209.42,30.78v7.58h9.54v5.59h-9.54v7.73h12.47v5.78h-19.57V24.95h19.57v5.78h-12.47v.05Z"/>
      <path class="cls-1" d="M251.98,24.95V57.42h-3.68c-.53,0-1.02-.09-1.38-.28-.35-.19-.75-.47-1.11-1l-14.33-19.29c.04,.57,.09,1.14,.09,1.66,0,.57,.09,1.04,.09,1.52v17.4h-6.21V24.95h3.73c.31,0,.53,0,.8,.05,.27,.05,.4,.09,.53,.14,.18,.09,.31,.19,.44,.33s.31,.33,.49,.57l14.47,19.53c-.09-.62-.13-1.23-.13-1.8-.04-.57-.04-1.14-.04-1.66V24.95h6.26Z"/>
      <path class="cls-1" d="M284.33,24.95l-12.16,32.47h-6.39l-12.2-32.47h5.68c.58,0,1.11,.14,1.46,.43,.35,.28,.62,.66,.89,1.19l5.86,17.4c.27,.76,.53,1.56,.84,2.51,.27,.9,.49,1.85,.75,2.84,.18-1,.4-1.9,.62-2.84,.22-.9,.49-1.71,.8-2.51l5.81-17.4c.13-.38,.4-.81,.84-1.14,.4-.33,.89-.47,1.46-.47-.04,0,5.72,0,5.72,0Z"/>
      <path class="cls-1" d="M299.1,15.85l-6.74,6.4c-.18,.14-.31,.28-.44,.38s-.31,.14-.44,.19c-.18,.05-.35,.09-.53,.09h-5.37l3.95-6.02c.18-.24,.31-.43,.49-.57,.13-.14,.31-.24,.49-.28,.18-.05,.4-.09,.62-.09h7.99v-.09Zm-6.12,41.62h-7.1V24.95h7.1V57.47Z"/>
      <path class="cls-1" d="M327.9,41.21c0,2.37-.35,4.5-1.15,6.59-.8,1.99-1.82,3.79-3.19,5.31-1.38,1.47-3.02,2.65-4.97,3.56-1.91,.85-4.08,1.28-6.48,1.28s-4.48-.43-6.48-1.28c-1.91-.85-3.64-1.99-5.01-3.56-1.38-1.47-2.44-3.22-3.19-5.31-.8-1.99-1.15-4.22-1.15-6.59s.35-4.5,1.15-6.59c.8-1.99,1.82-3.79,3.19-5.26,1.38-1.47,3.02-2.65,5.01-3.46,1.91-.85,4.08-1.28,6.48-1.28s4.48,.43,6.48,1.28c2,.85,3.59,1.99,4.97,3.56,1.38,1.47,2.44,3.22,3.19,5.26,.75,2.04,1.15,4.12,1.15,6.49Zm-7.23,0c0-1.61-.18-3.03-.58-4.31-.35-1.28-.98-2.37-1.69-3.27-.75-.95-1.6-1.56-2.66-2.04-1.06-.47-2.26-.76-3.64-.76s-2.57,.24-3.64,.76c-1.06,.47-2,1.19-2.71,2.04-.75,.9-1.29,1.94-1.69,3.27-.35,1.28-.58,2.75-.58,4.31s.18,3.08,.58,4.36c.35,1.28,.98,2.37,1.69,3.27,.75,.9,1.6,1.56,2.71,2.04,1.06,.47,2.31,.66,3.64,.66s2.57-.24,3.64-.66c1.06-.47,2-1.14,2.66-2.04,.75-.9,1.29-1.94,1.69-3.27,.35-1.28,.58-2.75,.58-4.36Z"/>
      <path class="cls-3" d="M353.59,41.29h10.78v13.75c-1.55,1.23-3.19,2.13-4.97,2.65-1.73,.52-3.59,.85-5.5,.85-2.53,0-4.79-.43-6.83-1.28-2.09-.85-3.82-1.99-5.28-3.46-1.46-1.47-2.57-3.22-3.42-5.26-.84-1.99-1.2-4.22-1.2-6.64s.35-4.65,1.15-6.68c.8-2.04,1.82-3.79,3.19-5.26,1.38-1.47,3.06-2.61,5.06-3.41,2-.85,4.17-1.23,6.66-1.23,1.29,0,2.44,.09,3.59,.33,1.11,.24,2.17,.52,3.06,.95,.93,.38,1.77,.85,2.57,1.37,.8,.52,1.46,1.14,2.09,1.71l-2.09,3.32c-.31,.52-.75,.85-1.24,1-.49,.09-1.06,0-1.64-.38-.53-.33-1.11-.66-1.55-.95-.49-.24-1.02-.47-1.51-.62-.49-.14-1.06-.28-1.6-.33-.53-.09-1.2-.09-1.91-.09-1.33,0-2.53,.24-3.59,.76-1.06,.47-2,1.19-2.71,2.13-.75,.9-1.33,1.99-1.73,3.27-.4,1.28-.58,2.7-.58,4.27,0,1.71,.22,3.22,.71,4.6,.44,1.37,1.06,2.46,1.86,3.37,.84,.95,1.77,1.61,2.93,2.13,1.15,.47,2.4,.76,3.77,.76,.84,0,1.6-.09,2.31-.24,.71-.19,1.38-.38,2.04-.76v-4.98h-2.97c-.44,0-.8-.14-1.06-.38-.22-.24-.35-.57-.35-1v-4.27h-.04Z"/>
      <path class="cls-3" d="M393.17,58.12h-6.39c-1.2,0-2.04-.47-2.53-1.42l-5.06-9.43c-.22-.38-.49-.66-.8-.9-.27-.19-.71-.28-1.24-.28h-1.77v12.04h-7.06V25.6h9.9c2.22,0,4.08,.24,5.64,.76,1.55,.47,2.8,1.19,3.82,1.99,.98,.9,1.69,1.85,2.17,3.03,.49,1.19,.71,2.46,.71,3.84,0,1.09-.13,2.04-.4,2.99-.27,.95-.62,1.8-1.15,2.61s-1.15,1.52-1.91,2.13c-.8,.62-1.64,1.14-2.62,1.52,.44,.24,.89,.57,1.29,.95,.4,.38,.8,.85,1.11,1.37l6.3,11.33Zm-14.95-17.25c.98,0,1.77-.14,2.44-.38,.71-.24,1.24-.62,1.64-1.09,.4-.43,.75-1,.93-1.61,.18-.62,.27-1.28,.27-1.99,0-1.42-.4-2.56-1.29-3.32-.89-.81-2.22-1.23-4.04-1.23h-2.84v9.62h2.88s0,0,0,0Z"/>
      <path class="cls-3" d="M421.3,58.12h-5.46c-.58,0-1.11-.14-1.46-.43-.35-.28-.62-.66-.89-1.19l-1.77-5.64h-11.58l-1.77,5.64c-.13,.38-.4,.81-.84,1.14-.4,.33-.89,.47-1.46,.47h-5.5l11.76-32.47h7.23l11.76,32.47Zm-11.23-12.42l-2.8-8.86c-.22-.57-.4-1.23-.71-1.99-.22-.81-.44-1.61-.71-2.51-.22,.9-.4,1.75-.71,2.51-.22,.81-.44,1.42-.71,1.99l-2.8,8.82h8.43v.05Z"/>
      <path class="cls-3" d="M440.39,31.62h-8.56v26.5h-7.06V31.62h-8.56v-6.02h24.14v6.02h.04Z"/>
      <path class="cls-3" d="M450.24,58.12h-7.1V25.6h7.1V58.12Z"/>
      <path class="cls-3" d="M472.11,32.23c-.22,.33-.4,.62-.62,.81-.22,.19-.49,.24-.89,.24-.31,0-.62-.09-1.02-.33-.35-.19-.8-.43-1.24-.76-.44-.24-1.02-.47-1.6-.76-.58-.19-1.29-.33-2.09-.33-1.33,0-2.31,.28-2.93,.9-.62,.57-.98,1.42-.98,2.46,0,.62,.18,1.19,.58,1.61,.35,.43,.93,.81,1.51,1.14,.62,.28,1.38,.57,2.17,.9,.84,.24,1.64,.52,2.48,.9,.84,.33,1.69,.66,2.48,1.14,.84,.43,1.51,1,2.17,1.66,.62,.66,1.15,1.47,1.51,2.46,.35,1,.58,2.13,.58,3.46,0,1.52-.22,2.89-.75,4.22-.49,1.33-1.2,2.46-2.13,3.41-.93,1-2.09,1.71-3.46,2.32-1.38,.52-2.88,.85-4.66,.85-.98,0-1.91-.09-2.88-.28-.98-.19-1.91-.47-2.84-.9-.93-.38-1.77-.85-2.57-1.37-.84-.52-1.51-1.09-2.13-1.71l2.09-3.56c.18-.24,.35-.43,.62-.62,.27-.14,.53-.24,.89-.24,.4,0,.84,.14,1.29,.43,.4,.28,.93,.57,1.42,.95,.53,.33,1.15,.62,1.82,.95,.67,.33,1.51,.43,2.48,.43,1.29,0,2.31-.28,2.97-.9,.67-.62,1.06-1.56,1.06-2.84,0-.76-.18-1.37-.58-1.85-.35-.47-.93-.9-1.51-1.19-.62-.28-1.33-.57-2.17-.85-.84-.24-1.64-.47-2.48-.81-.84-.28-1.69-.62-2.48-1.09-.84-.43-1.51-1-2.17-1.66-.62-.66-1.15-1.56-1.51-2.61-.35-1.04-.58-2.32-.58-3.84,0-1.23,.22-2.42,.71-3.6,.44-1.19,1.15-2.23,2.04-3.08,.89-.85,2-1.61,3.24-2.18,1.29-.52,2.75-.85,4.44-.85,.93,0,1.82,.09,2.71,.24s1.73,.38,2.53,.66c.8,.28,1.51,.66,2.22,1.09,.71,.43,1.29,.9,1.82,1.42l-1.55,3.56Z"/>
    </g>
    <path class="cls-1" d="M617.27,58.47h0l.15-.15c0-.23,0-.3-.15-.61v-.15c-.15-.3-.23-.61-.3-.84l-12.05-17.23c-.61-.91-1.68-1.45-2.67-1.45h-20.74v-11.21c0-1.83-1.52-3.2-3.2-3.43h-64.42c-.84,0-1.68,.53-2.21,1.07-.61,.76-.91,1.52-.84,2.44,.15,1.75,1.45,3.05,3.13,3.13h61.07v49.4h-28.29l-.15-.53c-1.98-6.56-9-10.14-15.48-8.16-3.81,1.14-6.86,4.27-8.16,8.16l-.15,.53h-5.64v-29.43c.15-1.83-1.22-3.43-3.13-3.51-1.83-.08-3.43,1.22-3.51,3.13v33.01c0,1.83,1.52,3.2,3.2,3.2h9.07l.15,.3c2.13,6.4,9.15,9.99,15.55,7.78,3.74-1.14,6.63-4.27,7.78-7.78l.15-.3h37.36l.15,.3c1.07,3.13,3.13,5.72,6.02,7.24,2.9,1.52,6.33,1.75,9.45,.76,3.74-1.14,6.71-4.27,8.01-8.01l.15-.3h6.71c.91,0,1.75-.3,2.29-.91,.61-.61,.91-1.45,.91-2.29v-24.24l-.23,.08h0Zm-78.83,28.29c-1.07,1.07-2.44,1.75-4.04,1.75h0c-1.52,0-2.9-.61-3.96-1.68-1.07-1.07-1.75-2.44-1.75-4.04,0-3.13,2.59-5.72,5.72-5.72,1.45,0,2.82,.53,3.81,1.45,1.22,1.07,1.98,2.67,1.98,4.35-.08,1.45-.69,2.82-1.75,3.89Zm42.85-41.86h18.98l7.32,10.6h-26.46v-10.6h.15Zm14.18,43.69s-.08,0,0,0c-1.68,0-3.05-.61-4.04-1.68s-1.75-2.59-1.75-4.04,.61-3.05,1.68-4.04c1.07-1.07,2.59-1.75,4.04-1.75s2.82,.53,3.81,1.45c1.22,1.07,1.98,2.67,1.98,4.35,0,2.97-2.59,5.57-5.72,5.72Zm11.97-9.07l-.15-.53c-.91-3.13-3.13-5.72-6.02-7.24s-6.33-1.83-9.45-.84c-3.81,1.14-6.86,4.27-8.16,8.16l-.15,.53h-2.29v-17.46h29.28v17.46h-3.13v-.08s.08,0,.08,0Z"/>
  </g>
  <g>
    <path class="cls-1" d="M180.78,82.56c.07,.9,.22,1.67,.46,2.32,.24,.65,.56,1.19,.96,1.62,.4,.43,.87,.74,1.41,.95s1.14,.31,1.8,.31,1.23-.08,1.71-.24c.48-.16,.89-.33,1.25-.53s.67-.37,.94-.53c.27-.16,.53-.24,.78-.24,.34,0,.59,.13,.76,.39l1.17,1.53c-.45,.54-.96,1-1.52,1.37-.56,.37-1.15,.66-1.75,.88-.61,.22-1.23,.38-1.86,.47-.63,.09-1.24,.14-1.84,.14-1.18,0-2.27-.2-3.28-.6-1.01-.4-1.89-1-2.64-1.79-.75-.79-1.33-1.76-1.76-2.93-.43-1.16-.64-2.51-.64-4.04,0-1.19,.19-2.31,.56-3.36s.91-1.96,1.61-2.74,1.55-1.39,2.55-1.85c1.01-.45,2.14-.68,3.4-.68,1.07,0,2.05,.18,2.95,.53,.9,.35,1.67,.86,2.32,1.54s1.16,1.5,1.52,2.48c.37,.98,.55,2.1,.55,3.36,0,.64-.07,1.06-.2,1.28-.13,.22-.38,.33-.76,.33h-10.46Zm7.76-2.53c0-.54-.07-1.06-.22-1.54-.15-.48-.37-.9-.67-1.27s-.67-.65-1.13-.86c-.46-.21-.99-.31-1.59-.31-1.18,0-2.1,.35-2.78,1.04-.68,.69-1.11,1.67-1.29,2.94h7.68Z"/>
    <path class="cls-1" d="M199.05,75.45c.34-.35,.7-.68,1.08-.98,.38-.3,.78-.56,1.2-.77s.88-.37,1.36-.49c.48-.12,1.01-.18,1.58-.18,.92,0,1.74,.16,2.46,.48,.71,.32,1.31,.78,1.79,1.36,.48,.58,.84,1.28,1.09,2.09,.25,.81,.37,1.7,.37,2.68v11.11h-4.07v-11.11c0-1.07-.24-1.89-.71-2.48-.47-.58-1.19-.88-2.16-.88-.7,0-1.36,.16-1.98,.49-.62,.33-1.2,.78-1.75,1.34v12.62h-4.07v-17.45h2.49c.53,0,.87,.26,1.04,.77l.28,1.38Z"/>
    <path class="cls-1" d="M221.84,90.76v-17.45h2.49c.53,0,.87,.26,1.04,.77l.26,1.29c.3-.34,.61-.65,.93-.94,.32-.28,.67-.53,1.04-.73s.76-.37,1.19-.48,.89-.18,1.39-.18c1.07,0,1.94,.3,2.63,.89,.69,.6,1.2,1.39,1.54,2.37,.26-.58,.59-1.07,.99-1.49,.4-.41,.83-.75,1.3-1.01,.47-.26,.97-.45,1.51-.58,.53-.12,1.07-.19,1.61-.19,.93,0,1.76,.15,2.49,.44,.73,.29,1.33,.73,1.83,1.29,.49,.57,.87,1.26,1.13,2.08,.26,.82,.39,1.75,.39,2.81v11.11h-4.07v-11.11c0-1.11-.24-1.95-.71-2.51-.47-.56-1.16-.84-2.08-.84-.42,0-.8,.07-1.16,.22-.36,.15-.67,.36-.94,.64s-.48,.63-.63,1.05c-.15,.42-.23,.9-.23,1.45v11.11h-4.09v-11.11c0-1.17-.23-2.02-.68-2.55-.46-.53-1.12-.8-2-.8-.59,0-1.15,.15-1.66,.45s-.99,.71-1.43,1.23v12.78h-4.07Z"/>
    <path class="cls-1" d="M254.22,68.22c0,.36-.07,.7-.21,1.02-.14,.32-.33,.6-.57,.83-.24,.24-.51,.43-.83,.57-.32,.14-.66,.21-1.02,.21s-.68-.07-1-.21c-.31-.14-.59-.33-.82-.57-.23-.24-.41-.52-.55-.83-.14-.32-.21-.66-.21-1.02s.07-.72,.21-1.05c.14-.33,.32-.61,.55-.85,.23-.24,.5-.43,.82-.57,.31-.14,.65-.21,1-.21s.7,.07,1.02,.21c.32,.14,.6,.33,.83,.57,.24,.24,.43,.52,.57,.85,.14,.33,.21,.68,.21,1.05Zm-.56,5.09v17.45h-4.09v-17.45h4.09Z"/>
    <path class="cls-1" d="M261.93,65.48v25.28h-4.07v-25.28h4.07Z"/>
    <path class="cls-1" d="M269.13,82.56c.07,.9,.22,1.67,.46,2.32,.24,.65,.56,1.19,.96,1.62,.4,.43,.87,.74,1.41,.95s1.14,.31,1.8,.31,1.23-.08,1.71-.24c.48-.16,.89-.33,1.25-.53s.67-.37,.94-.53c.27-.16,.53-.24,.78-.24,.34,0,.59,.13,.76,.39l1.17,1.53c-.45,.54-.96,1-1.52,1.37-.56,.37-1.15,.66-1.75,.88-.61,.22-1.23,.38-1.86,.47-.63,.09-1.24,.14-1.84,.14-1.18,0-2.27-.2-3.28-.6-1.01-.4-1.89-1-2.64-1.79-.75-.79-1.33-1.76-1.76-2.93-.43-1.16-.64-2.51-.64-4.04,0-1.19,.19-2.31,.56-3.36s.91-1.96,1.61-2.74,1.55-1.39,2.55-1.85c1.01-.45,2.14-.68,3.4-.68,1.07,0,2.05,.18,2.95,.53,.9,.35,1.67,.86,2.32,1.54s1.16,1.5,1.52,2.48c.37,.98,.55,2.1,.55,3.36,0,.64-.07,1.06-.2,1.28-.13,.22-.38,.33-.76,.33h-10.46Zm7.76-2.53c0-.54-.07-1.06-.22-1.54-.15-.48-.37-.9-.67-1.27s-.67-.65-1.13-.86c-.46-.21-.99-.31-1.59-.31-1.18,0-2.1,.35-2.78,1.04-.68,.69-1.11,1.67-1.29,2.94h7.68Z"/>
    <path class="cls-1" d="M293.91,76.71c-.11,.18-.22,.31-.35,.38-.12,.07-.27,.11-.46,.11-.2,0-.41-.06-.63-.17-.22-.11-.49-.24-.78-.38-.3-.14-.63-.27-1.01-.38-.38-.11-.83-.17-1.34-.17-.8,0-1.43,.18-1.89,.53-.46,.35-.68,.81-.68,1.38,0,.37,.12,.69,.35,.94,.24,.26,.55,.48,.94,.67,.39,.19,.83,.37,1.33,.52,.49,.15,1,.32,1.51,.5,.51,.18,1.01,.39,1.51,.62s.94,.53,1.33,.88c.39,.36,.7,.79,.94,1.28,.24,.5,.35,1.1,.35,1.8,0,.84-.15,1.61-.44,2.32s-.72,1.32-1.29,1.84c-.57,.52-1.28,.92-2.12,1.21-.84,.29-1.81,.43-2.91,.43-.58,0-1.15-.05-1.71-.16-.55-.11-1.09-.26-1.6-.45-.51-.19-.98-.42-1.42-.68-.43-.26-.82-.54-1.15-.85l.94-1.6c.12-.19,.26-.34,.43-.44,.16-.1,.37-.15,.63-.15s.49,.07,.72,.22c.23,.15,.49,.31,.78,.48,.3,.17,.65,.33,1.05,.48,.4,.15,.91,.22,1.52,.22,.48,0,.9-.06,1.24-.18,.35-.12,.63-.27,.86-.47,.23-.19,.39-.42,.49-.67,.1-.25,.16-.52,.16-.79,0-.41-.12-.74-.35-1-.24-.26-.55-.49-.94-.68-.39-.19-.83-.37-1.33-.52-.5-.15-1.01-.32-1.53-.5-.52-.18-1.03-.39-1.53-.64-.5-.24-.94-.55-1.33-.93-.39-.37-.7-.83-.94-1.38-.24-.54-.35-1.2-.35-1.97,0-.71,.14-1.4,.41-2.04s.68-1.21,1.21-1.69,1.2-.87,1.99-1.16c.8-.29,1.72-.43,2.76-.43,1.16,0,2.22,.2,3.18,.6,.96,.4,1.75,.92,2.39,1.56l-.92,1.51Z"/>
    <path class="cls-1" d="M320.77,65.48v25.28h-2.49c-.54,0-.88-.25-1.02-.76l-.35-1.68c-.68,.81-1.46,1.46-2.35,1.96s-1.91,.75-3.09,.75c-.92,0-1.77-.2-2.54-.6-.77-.4-1.43-.97-1.99-1.73-.55-.75-.98-1.69-1.29-2.8-.3-1.11-.45-2.38-.45-3.81,0-1.29,.17-2.49,.51-3.61,.34-1.11,.83-2.08,1.47-2.89,.64-.82,1.4-1.45,2.29-1.91s1.89-.69,3-.69c.94,0,1.75,.15,2.42,.46,.67,.31,1.27,.72,1.8,1.24v-9.2h4.07Zm-4.07,12.28c-.46-.58-.96-.99-1.51-1.22-.54-.24-1.13-.36-1.75-.36s-1.17,.12-1.66,.36c-.49,.24-.92,.6-1.27,1.08-.35,.48-.62,1.09-.81,1.84-.19,.74-.28,1.62-.28,2.63s.08,1.89,.24,2.59,.39,1.29,.68,1.74c.3,.45,.66,.77,1.09,.97,.43,.2,.91,.3,1.43,.3,.85,0,1.57-.18,2.16-.54s1.15-.88,1.68-1.55v-7.82Z"/>
    <path class="cls-1" d="M327.92,82.56c.07,.9,.22,1.67,.46,2.32,.24,.65,.56,1.19,.96,1.62,.4,.43,.87,.74,1.41,.95s1.14,.31,1.8,.31,1.23-.08,1.71-.24c.48-.16,.89-.33,1.25-.53s.67-.37,.94-.53c.27-.16,.53-.24,.78-.24,.34,0,.59,.13,.76,.39l1.17,1.53c-.45,.54-.96,1-1.52,1.37-.56,.37-1.15,.66-1.75,.88-.61,.22-1.23,.38-1.86,.47-.63,.09-1.24,.14-1.84,.14-1.18,0-2.27-.2-3.28-.6-1.01-.4-1.89-1-2.64-1.79-.75-.79-1.33-1.76-1.76-2.93-.43-1.16-.64-2.51-.64-4.04,0-1.19,.19-2.31,.56-3.36s.91-1.96,1.61-2.74,1.55-1.39,2.55-1.85c1.01-.45,2.14-.68,3.4-.68,1.07,0,2.05,.18,2.95,.53,.9,.35,1.67,.86,2.32,1.54s1.16,1.5,1.52,2.48c.37,.98,.55,2.1,.55,3.36,0,.64-.07,1.06-.2,1.28-.13,.22-.38,.33-.76,.33h-10.46Zm7.76-2.53c0-.54-.07-1.06-.22-1.54-.15-.48-.37-.9-.67-1.27s-.67-.65-1.13-.86c-.46-.21-.99-.31-1.59-.31-1.18,0-2.1,.35-2.78,1.04-.68,.69-1.11,1.67-1.29,2.94h7.68Z"/>
    <path class="cls-1" d="M354.25,75.69c.69-.81,1.48-1.46,2.36-1.96,.88-.5,1.91-.75,3.1-.75,.92,0,1.77,.2,2.53,.6s1.42,.97,1.98,1.73c.55,.75,.98,1.68,1.28,2.79,.3,1.11,.45,2.37,.45,3.8,0,1.3-.17,2.51-.51,3.62-.34,1.11-.83,2.08-1.46,2.89-.63,.82-1.4,1.45-2.29,1.91s-1.9,.69-3.01,.69c-.94,0-1.75-.15-2.42-.45s-1.27-.72-1.8-1.25v7.14h-4.07v-23.15h2.49c.53,0,.87,.26,1.04,.77l.33,1.62Zm.21,10.55c.46,.58,.96,.99,1.51,1.23,.54,.24,1.13,.36,1.77,.36s1.17-.12,1.66-.36c.49-.24,.91-.6,1.26-1.09,.35-.49,.61-1.1,.8-1.85s.28-1.62,.28-2.63-.08-1.89-.24-2.59c-.16-.71-.39-1.28-.68-1.73-.3-.44-.66-.77-1.08-.97-.42-.2-.9-.31-1.44-.31-.85,0-1.56,.18-2.16,.55-.59,.37-1.15,.89-1.68,1.56v7.82Z"/>
    <path class="cls-1" d="M372.95,76.33c.53-1.04,1.15-1.86,1.88-2.46,.73-.6,1.58-.89,2.57-.89,.78,0,1.41,.18,1.88,.53l-.26,3.15c-.06,.2-.13,.35-.24,.43-.1,.08-.24,.13-.42,.13-.16,0-.41-.03-.73-.08-.32-.06-.64-.09-.95-.09-.45,0-.85,.07-1.2,.2-.35,.14-.67,.33-.95,.59-.28,.26-.53,.56-.74,.93s-.41,.78-.6,1.24v10.75h-4.07v-17.45h2.39c.42,0,.71,.08,.87,.23,.16,.15,.27,.43,.33,.82l.25,1.97Z"/>
    <path class="cls-1" d="M388.41,73.03c1.25,0,2.39,.21,3.42,.63,1.03,.42,1.91,1.02,2.64,1.79,.73,.77,1.29,1.71,1.69,2.82,.4,1.11,.59,2.35,.59,3.73s-.2,2.63-.59,3.74c-.4,1.11-.96,2.06-1.69,2.84-.73,.78-1.61,1.38-2.64,1.8-1.03,.42-2.17,.63-3.42,.63s-2.41-.21-3.44-.63c-1.03-.42-1.91-1.02-2.64-1.8-.73-.78-1.3-1.73-1.7-2.84-.4-1.11-.6-2.36-.6-3.74s.2-2.61,.6-3.73c.4-1.11,.97-2.05,1.7-2.82,.73-.77,1.61-1.37,2.64-1.79,1.03-.42,2.18-.63,3.44-.63Zm0,14.75c1.41,0,2.45-.49,3.12-1.46,.68-.98,1.01-2.4,1.01-4.29s-.34-3.32-1.01-4.3c-.68-.99-1.72-1.48-3.12-1.48s-2.49,.5-3.17,1.49c-.69,.99-1.03,2.42-1.03,4.29s.34,3.3,1.03,4.28c.69,.98,1.74,1.47,3.17,1.47Z"/>
    <path class="cls-1" d="M414.54,65.48v25.28h-2.49c-.54,0-.88-.25-1.02-.76l-.35-1.68c-.68,.81-1.46,1.46-2.35,1.96s-1.91,.75-3.09,.75c-.92,0-1.77-.2-2.54-.6-.77-.4-1.43-.97-1.99-1.73-.55-.75-.98-1.69-1.29-2.8-.3-1.11-.45-2.38-.45-3.81,0-1.29,.17-2.49,.51-3.61,.34-1.11,.83-2.08,1.47-2.89,.64-.82,1.4-1.45,2.29-1.91s1.89-.69,3-.69c.94,0,1.75,.15,2.42,.46,.67,.31,1.27,.72,1.8,1.24v-9.2h4.07Zm-4.07,12.28c-.46-.58-.96-.99-1.51-1.22-.54-.24-1.13-.36-1.75-.36s-1.17,.12-1.66,.36c-.49,.24-.92,.6-1.27,1.08-.35,.48-.62,1.09-.81,1.84-.19,.74-.28,1.62-.28,2.63s.08,1.89,.24,2.59,.39,1.29,.68,1.74c.3,.45,.66,.77,1.09,.97,.43,.2,.91,.3,1.43,.3,.85,0,1.57-.18,2.16-.54s1.15-.88,1.68-1.55v-7.82Z"/>
    <path class="cls-1" d="M433.13,73.31v17.45h-2.49c-.54,0-.88-.25-1.02-.76l-.28-1.4c-.69,.73-1.46,1.31-2.29,1.76-.83,.45-1.82,.67-2.95,.67-.92,0-1.74-.16-2.45-.48-.71-.32-1.3-.78-1.79-1.37s-.85-1.29-1.1-2.1-.37-1.7-.37-2.68v-11.09h4.07v11.09c0,1.07,.24,1.89,.72,2.47,.48,.58,1.19,.88,2.15,.88,.7,0,1.36-.16,1.98-.48,.61-.32,1.2-.77,1.75-1.33v-12.62h4.07Z"/>
    <path class="cls-1" d="M449.26,77c-.12,.16-.24,.28-.35,.37-.12,.09-.28,.14-.5,.14s-.41-.06-.61-.2c-.2-.13-.43-.28-.71-.44-.27-.16-.6-.31-.98-.44-.38-.13-.85-.2-1.41-.2-.71,0-1.34,.13-1.88,.4s-.99,.65-1.34,1.15c-.36,.5-.62,1.1-.8,1.81-.18,.71-.26,1.51-.26,2.41s.1,1.76,.29,2.48c.19,.73,.47,1.33,.83,1.83,.36,.49,.8,.87,1.32,1.12,.52,.25,1.1,.38,1.75,.38s1.17-.08,1.57-.25,.74-.35,1.01-.54,.51-.38,.72-.54,.43-.25,.68-.25c.33,0,.58,.13,.74,.39l1.17,1.53c-.45,.54-.94,1-1.47,1.37-.53,.37-1.07,.66-1.64,.88-.57,.22-1.15,.38-1.75,.47-.6,.09-1.19,.14-1.79,.14-1.04,0-2.03-.2-2.95-.6-.92-.4-1.73-.99-2.42-1.76-.69-.77-1.24-1.72-1.64-2.83-.4-1.12-.6-2.39-.6-3.82,0-1.28,.18-2.47,.54-3.56,.36-1.09,.88-2.04,1.57-2.84,.69-.8,1.55-1.43,2.57-1.88,1.02-.45,2.2-.68,3.53-.68s2.37,.21,3.32,.63c.95,.42,1.8,1.02,2.56,1.8l-1.07,1.53Z"/>
    <path class="cls-1" d="M458.67,91.03c-1.47,0-2.6-.43-3.39-1.28-.79-.86-1.18-2.04-1.18-3.55v-9.75h-1.73c-.22,0-.41-.07-.56-.22s-.23-.37-.23-.66v-1.67l2.72-.46,.86-4.76c.06-.23,.16-.4,.31-.53,.15-.12,.35-.19,.59-.19h2.11v5.49h4.51v2.99h-4.51v9.46c0,.54,.13,.97,.39,1.28,.26,.31,.61,.46,1.06,.46,.25,0,.46-.03,.63-.09s.32-.13,.45-.2c.13-.07,.24-.13,.34-.2,.1-.06,.2-.09,.3-.09,.12,0,.22,.03,.3,.09s.16,.16,.25,.28l1.22,2.04c-.59,.51-1.27,.9-2.04,1.16-.77,.26-1.57,.39-2.39,.39Z"/>
    <path class="cls-1" d="M472.64,73.03c1.25,0,2.39,.21,3.42,.63,1.03,.42,1.91,1.02,2.64,1.79,.73,.77,1.29,1.71,1.69,2.82,.4,1.11,.59,2.35,.59,3.73s-.2,2.63-.59,3.74c-.4,1.11-.96,2.06-1.69,2.84-.73,.78-1.61,1.38-2.64,1.8-1.03,.42-2.17,.63-3.42,.63s-2.41-.21-3.44-.63c-1.03-.42-1.91-1.02-2.64-1.8-.73-.78-1.3-1.73-1.7-2.84-.4-1.11-.6-2.36-.6-3.74s.2-2.61,.6-3.73c.4-1.11,.97-2.05,1.7-2.82,.73-.77,1.61-1.37,2.64-1.79,1.03-.42,2.18-.63,3.44-.63Zm0,14.75c1.41,0,2.45-.49,3.12-1.46,.68-.98,1.01-2.4,1.01-4.29s-.34-3.32-1.01-4.3c-.68-.99-1.72-1.48-3.12-1.48s-2.49,.5-3.17,1.49c-.69,.99-1.03,2.42-1.03,4.29s.34,3.3,1.03,4.28c.69,.98,1.74,1.47,3.17,1.47Z"/>
    <path class="cls-1" d="M494.4,76.71c-.11,.18-.22,.31-.35,.38-.12,.07-.27,.11-.46,.11-.2,0-.41-.06-.63-.17-.22-.11-.49-.24-.78-.38-.3-.14-.63-.27-1.01-.38-.38-.11-.83-.17-1.34-.17-.8,0-1.43,.18-1.89,.53-.46,.35-.68,.81-.68,1.38,0,.37,.12,.69,.35,.94,.24,.26,.55,.48,.94,.67,.39,.19,.83,.37,1.33,.52,.49,.15,1,.32,1.51,.5,.51,.18,1.01,.39,1.51,.62s.94,.53,1.33,.88c.39,.36,.7,.79,.94,1.28,.24,.5,.35,1.1,.35,1.8,0,.84-.15,1.61-.44,2.32s-.72,1.32-1.29,1.84c-.57,.52-1.28,.92-2.12,1.21-.84,.29-1.81,.43-2.91,.43-.58,0-1.15-.05-1.71-.16-.55-.11-1.09-.26-1.6-.45-.51-.19-.98-.42-1.42-.68-.43-.26-.82-.54-1.15-.85l.94-1.6c.12-.19,.26-.34,.43-.44,.16-.1,.37-.15,.63-.15s.49,.07,.72,.22c.23,.15,.49,.31,.78,.48,.3,.17,.65,.33,1.05,.48,.4,.15,.91,.22,1.52,.22,.48,0,.9-.06,1.24-.18,.35-.12,.63-.27,.86-.47,.23-.19,.39-.42,.49-.67,.1-.25,.16-.52,.16-.79,0-.41-.12-.74-.35-1-.24-.26-.55-.49-.94-.68-.39-.19-.83-.37-1.33-.52-.5-.15-1.01-.32-1.53-.5-.52-.18-1.03-.39-1.53-.64-.5-.24-.94-.55-1.33-.93-.39-.37-.7-.83-.94-1.38-.24-.54-.35-1.2-.35-1.97,0-.71,.14-1.4,.41-2.04s.68-1.21,1.21-1.69,1.2-.87,1.99-1.16c.8-.29,1.72-.43,2.76-.43,1.16,0,2.22,.2,3.18,.6,.96,.4,1.75,.92,2.39,1.56l-.92,1.51Z"/>
  </g>
</svg>