<?xml version="1.0" encoding="utf-8"?>
<!-- Generator: Adobe Illustrator 23.0.6, SVG Export Plug-In . SVG Version: 6.00 Build 0)  -->
<svg version="1.1" id="Capa_1" xmlns="http://www.w3.org/2000/svg" xmlns:xlink="http://www.w3.org/1999/xlink" x="0px" y="0px"
	 viewBox="0 0 21 19" style="enable-background:new 0 0 21 19;" xml:space="preserve">
<style type="text/css">
	.st0{fill-rule:evenodd;clip-rule:evenodd;fill:#333333;}
</style>
<path class="st0" d="M7.9,15.75c0.862,0,1.563,0.701,1.563,1.562S8.762,18.875,7.9,18.875s-1.563-0.701-1.563-1.562
	S7.038,15.75,7.9,15.75z M15.195,15.75c0.862,0,1.563,0.701,1.563,1.562s-0.701,1.562-1.563,1.562c-0.862,0-1.563-0.701-1.563-1.562
	S14.334,15.75,15.195,15.75z M7.9,16.792c-0.288,0-0.521,0.234-0.521,0.521s0.233,0.521,0.521,0.521
	c0.288,0,0.521-0.234,0.521-0.521S8.188,16.792,7.9,16.792z M15.195,16.792c-0.288,0-0.521,0.234-0.521,0.521
	s0.233,0.521,0.521,0.521s0.521-0.234,0.521-0.521S15.483,16.792,15.195,16.792z M2.688,0.125c0.824,0,1.597,0.632,1.758,1.44l0,0
	l0.13,0.651h8.534c0.289,0,0.521,0.233,0.521,0.521c0,0.289-0.232,0.521-0.521,0.521l0,0H4.785L6.034,9.5h11.246
	c0.347,0,0.759-0.3,0.866-0.631l0,0l1.706-5.308c0.032-0.099,0.03-0.183-0.005-0.232c-0.035-0.048-0.115-0.075-0.218-0.075l0,0
	h-0.002L17.28,3.258c-0.288,0-0.521-0.231-0.522-0.52c0-0.288,0.232-0.521,0.52-0.522l0,0l2.345-0.004
	c0.445,0,0.831,0.182,1.064,0.502c0.236,0.321,0.292,0.746,0.156,1.167l0,0l-1.706,5.308c-0.245,0.758-1.061,1.353-1.858,1.353l0,0
	H6.159c-0.027,0.594-0.23,1.237-0.552,1.666l0,0l-0.312,0.418h13.027c0.289,0,0.521,0.232,0.521,0.521
	c0,0.288-0.232,0.521-0.521,0.521l0,0H5.294c-0.477,0-0.848-0.195-1.018-0.533C4.107,12.795,4.174,12.382,4.461,12l0,0l0.312-0.417
	c0.255-0.34,0.411-1.025,0.327-1.441l0,0L3.425,1.769C3.362,1.454,3.011,1.167,2.688,1.167l0,0H0.604
	c-0.288,0-0.521-0.233-0.521-0.521c0-0.289,0.233-0.521,0.521-0.521l0,0H2.688z"/>
</svg>
